HIERARCHY
ROOT root
{
	OFFSET 0.000000 0.000000 0.000000
	CHANNELS 6 Xposition Yposition Zposition Zrotation Yrotation Xrotation
	JOINT lhip
	{
		OFFSET 0.058581 -0.082280 -0.017664
		CHANNELS 3 Zrotation Yrotation Xrotation
		JOINT lknee
		{
			OFFSET 0.043451 -0.386469 0.008037
			CHANNELS 3 Zrotation Yrotation Xrotation
			JOINT lankle
			{
				OFFSET -0.014790 -0.426874 -0.037428
				CHANNELS 3 Zrotation Yrotation Xrotation
				JOINT ltoe
				{
					OFFSET 0.041054 -0.060286 0.122042
					CHANNELS 3 Zrotation Yrotation Xrotation
					End Site
					{
						OFFSET 0.000000 0.000000 0.000000
					}
				}
			}
		}
	}
	JOINT rhip
	{
		OFFSET -0.060310 -0.090513 -0.013543
		CHANNELS 3 Zrotation Yrotation Xrotation
		JOINT rknee
		{
			OFFSET -0.043257 -0.383688 -0.004843
			CHANNELS 3 Zrotation Yrotation Xrotation
			JOINT rankle
			{
				OFFSET 0.019056 -0.420046 -0.034562
				CHANNELS 3 Zrotation Yrotation Xrotation
				JOINT rtoe
				{
					OFFSET -0.034840 -0.062106 0.130323
					CHANNELS 3 Zrotation Yrotation Xrotation
					End Site
					{
						OFFSET 0.000000 0.000000 0.000000
					}
				}
			}
		}
	}
	JOINT lowerback
	{
		OFFSET 0.004439 0.124404 -0.038385
		CHANNELS 3 Zrotation Yrotation Xrotation
		JOINT upperback
		{
			OFFSET 0.004488 0.137956 0.026820
			CHANNELS 3 Zrotation Yrotation Xrotation
			JOINT chest
			{
				OFFSET -0.002265 0.056032 0.002855
				CHANNELS 3 Zrotation Yrotation Xrotation
				JOINT lowerneck
				{
					OFFSET -0.013390 0.211636 -0.033468
					CHANNELS 3 Zrotation Yrotation Xrotation
					JOINT upperneck
					{
						OFFSET 0.010113 0.088937 0.050410
						CHANNELS 3 Zrotation Yrotation Xrotation
						End Site
						{
							OFFSET 0.000000 0.000000 0.000000
						}
					}
				}
				JOINT lclavicle
				{
					OFFSET 0.071702 0.114000 -0.018898
					CHANNELS 3 Zrotation Yrotation Xrotation
					JOINT lshoulder
					{
						OFFSET 0.122921 0.045205 -0.019046
						CHANNELS 3 Zrotation Yrotation Xrotation
						JOINT lelbow
						{
							OFFSET 0.255332 -0.015649 -0.022946
							CHANNELS 3 Zrotation Yrotation Xrotation
							JOINT lwrist
							{
								OFFSET 0.265709 0.012698 -0.007375
								CHANNELS 3 Zrotation Yrotation Xrotation
								End Site
								{
									OFFSET 0.000000 0.000000 0.000000
								}
							}
						}
					}
				}
				JOINT rclavicle
				{
					OFFSET -0.082954 0.112472 -0.023707
					CHANNELS 3 Zrotation Yrotation Xrotation
					JOINT rshoulder
					{
						OFFSET -0.113228 0.046853 -0.008472
						CHANNELS 3 Zrotation Yrotation Xrotation
						JOINT relbow
						{
							OFFSET -0.260127 -0.014369 -0.031269
							CHANNELS 3 Zrotation Yrotation Xrotation
							JOINT rwrist
							{
								OFFSET -0.269108 0.006794 -0.006027
								CHANNELS 3 Zrotation Yrotation Xrotation
								End Site
								{
									OFFSET 0.000000 0.000000 0.000000
								}
							}
						}
					}
				}
			}
		}
	}
}
MOTION
Frames: 12
Frame Time: 0.033333
0.617897 0.208307 0.991183 87.960322 0.425232 90.827387 2.020078 2.046021 4.760625 -3.176500 -5.207217 0.398806 3.558675 8.816130 -10.380464 0.000000 -0.000000 0.000000 -2.382500 -2.310946 -6.233625 1.900192 -4.711454 16.931192 3.465344 -7.760275 -10.989082 0.000000 -0.000000 0.000000 -1.450014 0.389619 3.251893 1.276740 -0.672617 -1.926335 0.877011 -1.052023 1.357883 4.435145 6.506432 -6.017946 -0.862784 1.277955 7.915531 -26.707298 4.767145 0.354815 -59.305880 -8.291915 9.770211 6.336783 -24.648930 8.979061 -5.350662 -2.112258 -3.613232 29.933242 -1.041016 1.738473 57.051852 7.149058 13.003820 -15.052331 20.815661 -8.891779 5.831803 1.787608 -7.623849 
0.616470 0.207815 0.991118 87.803953 0.459772 90.677358 2.097280 1.964072 4.822969 -3.266424 -5.262823 0.511274 3.778735 8.994618 -10.173288 0.000000 -0.000000 0.000000 -2.345402 -2.170158 -6.155570 1.964277 -4.754734 16.843791 3.368169 -7.817688 -10.905919 0.000000 -0.000000 0.000000 -1.494638 0.387663 3.378764 1.292693 -0.734388 -1.508822 0.939822 -1.027484 1.261420 4.255258 6.489238 -6.071435 -0.743955 1.298734 7.721474 -26.521846 4.230218 0.637978 -59.441298 -8.596041 9.737038 6.604059 -24.620227 8.744342 -5.659181 -1.966569 -3.934389 29.724230 -0.608070 2.063509 57.342216 7.229222 12.886635 -15.455909 21.008610 -9.080338 6.019485 1.613584 -7.896715 
0.615404 0.207235 0.991227 87.562606 0.431805 90.731814 2.072153 1.928303 4.765344 -3.271594 -5.193731 0.523347 3.798097 9.080629 -9.965359 0.000000 -0.000000 0.000000 -2.324476 -2.230633 -6.355352 1.950104 -4.530520 16.906917 3.393145 -7.708816 -10.829990 0.000000 -0.000000 0.000000 -1.531005 0.408779 3.444010 1.296686 -0.771300 -1.407347 0.880915 -1.079575 1.370672 4.299754 6.386473 -6.088890 -0.805407 1.181990 7.907339 -26.511053 4.328482 0.600131 -59.264560 -8.698322 9.807941 6.606064 -25.041671 8.639294 -5.474645 -1.944669 -3.925096 29.777880 -0.597410 1.832398 57.292715 7.195325 13.051841 -15.353417 21.130677 -9.025591 6.098735 1.542290 -7.794712 
0.613954 0.206667 0.991418 87.447393 0.492921 90.737759 2.138215 1.950212 4.613254 -3.223958 -5.085899 0.659355 3.723688 9.080304 -10.022207 0.000000 -0.000000 0.000000 -2.209020 -2.225894 -6.385982 1.980299 -4.436704 16.739944 3.435589 -7.728037 -10.792842 0.000000 -0.000000 0.000000 -1.447864 0.390638 3.738042 1.296800 -0.766525 -1.421757 0.894091 -1.178367 1.441086 4.253688 6.706456 -6.403001 -0.753153 1.296358 8.154838 -26.437191 4.282099 0.415737 -59.264543 -8.860209 9.852443 6.562425 -24.983936 8.660393 -5.265219 -1.988090 -3.872954 29.794291 -0.674154 1.751541 57.217891 7.259777 13.138270 -15.194274 21.291180 -9.102126 5.942324 1.598221 -7.915751 
0.611612 0.206273 0.991590 87.581438 0.456600 90.878635 2.090389 1.658192 4.183271 -3.206567 -5.015690 0.865722 3.782635 9.149131 -9.938384 0.000000 -0.000000 0.000000 -2.193292 -2.041860 -6.738398 1.974801 -4.561812 16.845791 3.423039 -7.946908 -10.702109 0.000000 -0.000000 0.000000 -1.500864 0.285775 4.134747 1.308146 -0.912702 -1.637930 0.917125 -1.228519 1.355414 4.213371 6.708130 -6.451580 -0.745652 1.356257 8.086211 -26.446865 4.157214 0.502668 -59.111254 -8.940178 9.864776 6.635512 -25.120050 8.540496 -5.266645 -1.986848 -4.145447 29.828288 -0.580328 1.765471 57.250582 7.304718 13.188749 -15.229355 21.288105 -9.159710 5.804806 1.622364 -8.119732 
0.610615 0.205694 0.991633 87.381185 0.482027 90.961357 2.153661 1.687327 4.060062 -3.220676 -4.883944 0.821077 3.791144 9.209002 -9.953210 0.000000 -0.000000 0.000000 -2.149142 -2.031851 -6.984121 2.034733 -4.406712 16.971031 3.449165 -7.892294 -10.649225 0.000000 -0.000000 0.000000 -1.525690 0.306400 4.184292 1.389189 -0.899087 -1.608318 0.962667 -1.291615 1.387664 4.328107 6.634966 -6.241642 -0.863196 1.474946 8.354583 -26.465502 4.088465 0.433741 -59.127174 -8.931393 9.949958 6.753280 -25.002235 8.517876 -5.221522 -2.061448 -4.105236 29.816142 -0.577764 1.865762 57.197264 7.333553 13.239926 -15.177598 21.285450 -9.181780 5.733975 1.553273 -8.258829 
0.609450 0.205139 0.991937 87.252313 0.446811 90.968471 2.189165 1.801417 3.975139 -3.302665 -4.825172 0.911338 3.818532 9.143670 -10.002902 0.000000 -0.000000 0.000000 -2.095626 -2.056012 -7.107032 1.959596 -4.254900 17.052974 3.463037 -7.794113 -10.655041 0.000000 -0.000000 0.000000 -1.587062 0.347852 4.534442 1.413102 -0.891951 -1.625089 0.969399 -1.263642 1.285462 4.393889 6.562900 -6.078327 -0.725669 1.382754 8.226503 -26.485727 4.130679 0.213821 -58.938561 -8.933869 9.925562 6.483146 -24.936470 8.638034 -5.328356 -2.032243 -3.898836 30.088768 -0.787408 1.669429 57.003721 7.172506 13.178063 -15.220189 21.379126 -9.216647 5.820394 1.626460 -7.890828 
0.608748 0.204853 0.991936 87.356186 0.434373 90.787495 2.230612 1.906733 4.113218 -3.315625 -4.951253 0.934828 3.725852 9.134957 -9.914485 0.000000 -0.000000 0.000000 -2.131250 -1.698449 -6.862209 2.056060 -4.391840 16.954241 3.343652 -8.076310 -10.686160 0.000000 -0.000000 0.000000 -1.462367 0.097538 4.825046 1.415555 -0.957146 -1.391749 0.916100 -1.281751 1.351591 4.405055 6.521660 -5.999386 -0.687627 1.306944 8.085251 -26.584604 4.074187 0.371703 -58.839461 -9.167963 9.815212 6.566858 -24.999521 8.502841 -5.420085 -1.924789 -4.044562 30.030791 -0.596130 1.476125 57.061447 7.159171 13.234699 -15.127024 21.213308 -9.251507 5.872922 1.576102 -8.033116 
0.607518 0.204559 0.992042 87.329557 0.397307 90.597479 2.225325 2.016340 4.210043 -3.314063 -5.043405 0.981456 3.639343 9.113953 -9.923350 0.000000 -0.000000 0.000000 -2.151376 -1.671362 -6.792422 2.047178 -4.382149 17.064736 3.387202 -8.055332 -10.683939 0.000000 -0.000000 0.000000 -1.335481 0.025410 5.168922 1.426402 -1.030044 -1.192315 0.886498 -1.271065 1.486178 4.649849 6.538238 -5.766647 -0.572676 1.262704 8.253831 -26.798100 3.940635 0.242337 -58.664727 -9.316004 9.814240 6.561159 -25.032860 8.463736 -5.082790 -2.068342 -3.714237 30.011029 -0.515511 1.434504 56.984893 7.340128 13.155850 -15.105008 21.221136 -9.487945 5.708375 1.550969 -8.121885 
0.606639 0.204019 0.991955 87.291778 0.321656 90.386602 2.193499 1.975647 4.389752 -3.367864 -5.044049 0.985060 3.673972 9.174683 -9.791845 0.000000 -0.000000 0.000000 -2.238167 -1.635147 -6.643504 2.058495 -4.456787 17.120949 3.330974 -7.929198 -10.660128 0.000000 -0.000000 0.000000 -1.286706 0.046518 5.333211 1.583105 -1.130101 -1.032985 0.856228 -1.338612 1.540073 4.855483 5.564446 -4.564668 0.023837 0.417895 8.807299 -26.742147 3.623290 0.519774 -58.923682 -9.528223 9.924526 6.829106 -24.765549 8.030507 -5.119495 -1.907733 -3.718352 29.769758 -0.213316 1.822447 57.047863 7.263818 12.927335 -15.425398 21.280845 -9.819693 5.703536 1.511748 -8.298858 
0.606496 0.203786 0.991927 87.446470 0.283346 90.016724 2.215695 2.185065 4.808318 -3.376814 -5.187640 0.928788 3.626280 8.900815 -9.862651 0.000000 -0.000000 0.000000 -2.368710 -1.850259 -6.325191 2.054725 -4.775292 17.327075 3.323832 -7.477026 -10.662153 0.000000 -0.000000 0.000000 -1.121564 -0.079959 5.563803 1.568186 -1.332613 -0.654127 0.668855 -1.208007 1.227419 3.780727 2.865084 -2.786030 1.809497 -2.945044 7.717644 -26.177782 3.234577 1.321599 -59.566357 -9.498493 9.869734 7.248366 -24.911808 7.634638 -5.489164 -1.473119 -3.991248 29.692236 0.009530 1.832942 57.137480 6.822962 11.983689 -15.596115 21.526353 -9.655754 6.319465 1.223940 -8.401548 
0.605492 0.202884 0.992053 87.333423 0.293421 89.853131 2.342581 2.476616 5.034873 -3.514090 -5.276306 0.820045 3.784464 8.683615 -9.889347 0.000000 -0.000000 0.000000 -2.349911 -2.041448 -6.406982 1.959360 -4.926862 17.625951 3.367324 -6.905483 -10.614508 0.000000 -0.000000 0.000000 -0.947773 0.069892 5.416398 1.582501 -1.506974 0.110477 0.463396 -0.967122 1.027409 3.167947 0.390504 -0.178818 4.208150 -5.968737 5.425587 -25.579784 2.823946 1.683362 -60.299207 -9.693494 9.876897 7.571994 -25.054606 7.755920 -5.673668 -1.039971 -4.243054 29.291768 0.084200 1.852407 57.758502 6.691981 11.115486 -16.039680 21.876594 -9.150832 6.783806 0.817102 -8.679639 
